# Blender v3.2.2 OBJ File: 'Bee.blend'
# www.blender.org
mtllib Bee.mtl
v -0.002863 -0.255644 -0.047045
v 0.143084 -0.145087 0.124534
v -0.056148 -0.145087 0.232641
v -0.181744 -0.145087 -0.045770
v 0.039061 0.038184 0.215961
v -0.146349 0.033799 0.126597
v 0.176017 0.033799 -0.048320
v -0.002863 0.144356 -0.047045
v 0.086577 0.089078 -0.047683
v -0.147579 0.033799 -0.046014
v 0.141853 -0.145087 -0.048077
vn 0.2138 -0.8939 0.3941
vn 0.6070 -0.7947 -0.0043
vn -0.5104 -0.8285 0.2303
vn 0.9822 -0.1876 -0.0070
vn 0.4704 -0.1655 0.8668
vn -0.8910 -0.2110 0.4020
vn 0.8574 0.2672 0.4399
vn -0.4203 0.2964 0.8576
vn 0.5102 0.8227 0.2508
vn -0.2114 0.8942 0.3947
vn -0.6070 0.7947 0.0043
vn -0.9822 0.1876 0.0070
usemtl Yellow
s off
f 1//1 2//1 3//1
f 2//2 1//2 11//2
f 1//3 3//3 4//3
f 2//4 11//4 7//4
f 3//5 2//5 5//5
f 4//6 3//6 6//6
f 2//7 7//7 5//7
f 3//8 5//8 6//8
f 5//9 9//9 8//9
f 6//10 5//10 8//10
f 8//11 10//11 6//11
f 10//12 4//12 6//12
f 5//9 7//9 9//9
v 0.425866 0.176253 -0.050297
v 0.425866 0.176253 -0.050297
v 0.425866 0.176253 -0.050297
v 0.425866 0.176253 -0.050297
v 0.120962 -0.059798 -0.147732
v 0.113279 -0.049551 -0.147674
v 0.122484 -0.059798 0.051777
v 0.114801 -0.049551 0.051835
vn 0.0000 0.0000 1.0000
vn 0.2081 0.1505 0.9665
vn -0.8001 -0.5999 0.0061
vn -0.5865 0.8100 0.0045
vn 0.1933 0.1505 -0.9695
vn 0.6131 -0.7900 -0.0047
usemtl Gray
s off
f 12//13 15//13 14//13
f 14//14 19//14 18//14
f 19//15 16//15 18//15
f 16//13 13//13 12//13
f 14//13 16//13 12//13
f 19//16 13//16 17//16
f 12//13 13//13 15//13
f 14//13 15//13 19//13
f 19//15 17//15 16//15
f 16//17 17//17 13//17
f 14//18 18//18 16//18
f 19//13 15//13 13//13
v -0.431751 0.176253 -0.043866
v -0.431751 0.176253 -0.043866
v -0.431751 0.176253 -0.043866
v -0.431751 0.176253 -0.043866
v -0.126895 -0.059798 0.053715
v -0.119212 -0.049551 0.053660
v -0.128320 -0.059798 -0.145795
v -0.120637 -0.049551 -0.145849
vn 0.0000 0.0000 1.0000
vn -0.2076 0.1505 -0.9666
vn 0.8001 -0.5999 -0.0057
vn 0.5865 0.8100 -0.0042
vn -0.1938 0.1505 0.9694
vn -0.6131 -0.7900 0.0044
usemtl Gray
s off
f 20//19 23//19 22//19
f 22//20 27//20 26//20
f 27//21 24//21 26//21
f 24//19 21//19 20//19
f 22//19 24//19 20//19
f 27//22 21//22 25//22
f 20//19 21//19 23//19
f 22//19 23//19 27//19
f 27//21 25//21 24//21
f 24//23 25//23 21//23
f 22//24 26//24 24//24
f 27//19 23//19 21//19
v -0.002863 -0.255644 -0.047045
v -0.181744 -0.145087 -0.045770
v -0.060129 -0.145087 -0.325943
v 0.140623 -0.145087 -0.220687
v -0.148810 0.033799 -0.218624
v 0.050422 0.033799 -0.326731
v 0.176017 0.033799 -0.048320
v -0.002863 0.144356 -0.047045
v 0.086577 0.089078 -0.047683
v -0.147579 0.033799 -0.046014
v 0.141853 -0.145087 -0.048077
vn -0.5137 -0.8285 -0.2230
vn 0.2082 -0.8939 -0.3971
vn -0.8967 -0.2110 -0.3892
vn 0.4459 -0.2793 -0.8504
vn -0.9822 0.1876 0.0070
vn -0.4580 0.2793 -0.8440
vn 0.8910 0.2110 -0.4020
vn -0.6070 0.7947 0.0043
vn -0.2138 0.8939 -0.3941
vn 0.5104 0.8285 -0.2303
vn 0.6070 -0.7947 -0.0043
vn 0.9822 -0.1876 -0.0070
usemtl Black
s off
f 28//25 29//25 30//25
f 28//26 30//26 31//26
f 30//27 29//27 32//27
f 31//28 30//28 33//28
f 29//29 37//29 32//29
f 30//30 32//30 33//30
f 31//31 33//31 34//31
f 32//32 37//32 35//32
f 33//33 32//33 35//33
f 33//34 36//34 34//34
f 38//35 28//35 31//35
f 34//36 38//36 31//36
f 33//34 35//34 36//34
v -0.041610 0.016535 0.143623
v -0.017868 0.034580 0.160615
v -0.050433 0.034580 0.171454
v -0.070805 0.034580 0.143831
v -0.050829 0.034580 0.115921
v -0.018112 0.034580 0.126294
v -0.032390 0.063776 0.171325
v -0.065107 0.063776 0.160952
v -0.065352 0.063776 0.126631
v -0.032786 0.063776 0.115792
v -0.012414 0.063776 0.143415
v -0.041610 0.081821 0.143623
vn 0.1917 -0.7947 0.5760
vn 0.6070 -0.7947 -0.0043
vn -0.4886 -0.7947 0.3603
vn -0.4937 -0.7947 -0.3533
vn 0.1835 -0.7947 -0.5787
vn 0.9822 -0.1876 -0.0070
vn 0.3102 -0.1876 0.9320
vn -0.7905 -0.1876 0.5830
vn -0.7987 -0.1876 -0.5717
vn 0.2969 -0.1876 -0.9363
vn 0.7987 0.1876 0.5717
vn -0.2969 0.1876 0.9363
vn -0.9822 0.1876 0.0070
vn -0.3102 0.1876 -0.9320
vn 0.7905 0.1876 -0.5830
vn 0.4937 0.7947 0.3533
vn -0.1835 0.7947 0.5787
vn -0.6070 0.7947 0.0043
vn -0.1917 0.7947 -0.5760
vn 0.4886 0.7947 -0.3603
usemtl Black
s off
f 39//37 40//37 41//37
f 40//38 39//38 44//38
f 39//39 41//39 42//39
f 39//40 42//40 43//40
f 39//41 43//41 44//41
f 40//42 44//42 49//42
f 41//43 40//43 45//43
f 42//44 41//44 46//44
f 43//45 42//45 47//45
f 44//46 43//46 48//46
f 40//47 49//47 45//47
f 41//48 45//48 46//48
f 42//49 46//49 47//49
f 43//50 47//50 48//50
f 44//51 48//51 49//51
f 45//52 49//52 50//52
f 46//53 45//53 50//53
f 47//54 46//54 50//54
f 48//55 47//55 50//55
f 49//56 48//56 50//56
v 0.057998 0.019175 0.138700
v 0.081740 0.037219 0.155692
v 0.049174 0.037219 0.166530
v 0.028802 0.037219 0.138908
v 0.048778 0.037219 0.110997
v 0.081495 0.037219 0.121371
v 0.067218 0.066416 0.166402
v 0.034501 0.066416 0.156028
v 0.034256 0.066416 0.121708
v 0.066822 0.066416 0.110869
v 0.087194 0.066416 0.138492
v 0.057998 0.084460 0.138700
vn 0.1917 -0.7947 0.5760
vn 0.6070 -0.7947 -0.0043
vn -0.4886 -0.7947 0.3603
vn -0.4937 -0.7947 -0.3533
vn 0.1835 -0.7947 -0.5787
vn 0.9822 -0.1876 -0.0070
vn 0.3102 -0.1876 0.9320
vn -0.7905 -0.1876 0.5830
vn -0.7987 -0.1876 -0.5717
vn 0.2969 -0.1876 -0.9363
vn 0.7987 0.1876 0.5717
vn -0.2969 0.1876 0.9363
vn -0.9822 0.1876 0.0070
vn -0.3102 0.1876 -0.9320
vn 0.7905 0.1876 -0.5830
vn 0.4937 0.7947 0.3533
vn -0.1835 0.7947 0.5787
vn -0.6070 0.7947 0.0043
vn -0.1917 0.7947 -0.5760
vn 0.4886 0.7947 -0.3603
usemtl Black
s off
f 51//57 52//57 53//57
f 52//58 51//58 56//58
f 51//59 53//59 54//59
f 51//60 54//60 55//60
f 51//61 55//61 56//61
f 52//62 56//62 61//62
f 53//63 52//63 57//63
f 54//64 53//64 58//64
f 55//65 54//65 59//65
f 56//66 55//66 60//66
f 52//67 61//67 57//67
f 53//68 57//68 58//68
f 54//69 58//69 59//69
f 55//70 59//70 60//70
f 56//71 60//71 61//71
f 57//72 61//72 62//72
f 58//73 57//73 62//73
f 59//74 58//74 62//74
f 60//75 59//75 62//75
f 61//76 60//76 62//76
