# Blender v3.0.1 OBJ File: 'Tree.blend'
# www.blender.org
mtllib Tree.mtl
o Tree_Cube.003
v -0.276322 0.000000 0.276322
v 0.101940 2.476671 0.187915
v -0.276322 0.000000 -0.276323
v -0.031049 2.437889 -0.151086
v 0.276323 0.000000 0.276322
v 0.421664 2.437889 0.070600
v 0.276323 0.000000 -0.276323
v 0.306150 2.437889 -0.266600
v 0.101940 2.476671 0.187915
v -0.031049 2.437889 -0.151086
v 0.306150 2.437889 -0.266600
v 0.421664 2.437889 0.070600
v -0.243785 4.309890 0.317491
v -0.105481 4.309890 0.092576
v 0.119434 4.309890 0.230880
v -0.018870 4.309890 0.455795
v 0.081378 2.538331 -0.116646
v 0.081378 2.675955 -0.116646
v 0.054743 2.538331 -0.251668
v 0.054743 2.675955 -0.251668
v 0.216400 2.538331 -0.143281
v 0.216400 2.675955 -0.143281
v 0.190965 2.541880 -0.280063
v 0.189765 2.675955 -0.282283
v -0.184351 2.848227 -1.046660
v -0.140731 2.775269 -1.068151
v -0.067461 2.822223 -1.078838
v -0.111080 2.895181 -1.057346
v 0.156423 3.006410 -2.116384
v 0.180813 2.965615 -2.128401
v 0.221783 2.991870 -2.134377
v 0.197393 3.032665 -2.122359
v 0.171680 3.061804 0.215793
v 0.171680 3.199428 0.215793
v 0.135897 3.061804 0.348684
v 0.135897 3.199428 0.348684
v 0.038789 3.061804 0.180010
v 0.038789 3.199428 0.180010
v 0.003006 3.061804 0.312901
v 0.003006 3.199428 0.312901
v 0.317514 3.498709 1.142206
v 0.268888 3.425751 1.142206
v 0.198438 3.472705 1.119410
v 0.247065 3.545664 1.119410
v 0.156615 3.776889 2.188154
v 0.129426 3.736094 2.188154
v 0.090034 3.762349 2.175407
v 0.117224 3.803144 2.175407
v 0.272648 4.167435 1.273795
v 0.768410 4.142612 1.938407
v 0.793101 3.698586 1.499170
v 0.126298 3.456448 1.310843
v -0.371495 3.882202 1.641980
v -0.012352 4.387475 2.034964
v 0.868684 3.613964 2.224338
v 0.509540 3.108690 1.831353
v -0.210229 3.222166 1.919611
v -0.536007 3.770148 2.356100
v 0.405755 3.931648 2.632026
v 0.248594 3.319519 2.484181
v -0.028546 4.329204 1.471763
v 1.715824 5.034648 0.620192
v 0.660723 6.173270 2.393155
v -1.316763 5.926744 1.704292
v -1.739175 4.444287 0.108468
v 0.171376 4.190495 -0.517983
v 1.877166 6.766113 0.288473
v -0.368541 7.619519 0.996416
v -1.772916 6.657276 -0.172931
v -0.573225 5.241983 -1.861611
v 1.259672 5.765180 -1.257032
v -0.143707 7.485837 -1.264468
v -0.014604 2.579699 -2.637782
v 0.642305 2.353474 -2.393233
v 0.146598 2.716226 -1.934859
v -0.325605 3.207249 -2.300542
v -0.165062 3.100463 -3.018864
v 0.583054 2.722137 -3.039334
v 0.843880 2.943051 -1.901978
v 0.297153 3.431811 -1.871533
v 0.229002 3.737532 -2.535315
v 0.855104 3.366189 -3.052817
v 1.187394 2.852931 -2.538944
v 0.894811 3.574250 -2.273084
vn -0.9950 0.1001 0.0000
vn 0.0000 0.0513 -0.9987
vn 0.9982 -0.0595 0.0000
vn 0.0000 0.0357 0.9994
vn 0.0000 -1.0000 0.0000
vn 0.0000 0.0000 1.0000
vn 0.8482 0.0923 0.5216
vn 0.0000 1.0000 0.0000
vn -0.9242 -0.0852 0.3723
vn -0.5173 -0.1570 0.8413
vn -0.3166 0.2140 -0.9241
vn -0.9811 0.0000 0.1935
vn -0.4774 0.8180 0.3208
vn 0.9831 0.0000 -0.1828
vn 0.1935 0.0000 0.9811
vn -0.5440 0.8376 -0.0494
vn -0.9725 0.0000 0.2328
vn 0.8239 0.5417 -0.1666
vn -0.0418 -0.9469 -0.3188
vn -0.2327 0.1442 -0.9618
vn -0.8496 -0.4104 -0.3313
vn 0.8548 0.4221 0.3021
vn 0.5409 -0.8410 0.0130
vn 0.9656 0.0000 0.2600
vn 0.5944 0.6980 -0.3993
vn -0.9656 0.0000 -0.2600
vn 0.2600 0.0000 -0.9656
vn 0.5780 0.8063 -0.1255
vn 0.9862 0.0000 -0.1653
vn -0.8320 0.5546 0.0137
vn -0.1278 -0.8708 0.4746
vn -0.2163 0.1442 0.9656
vn 0.8022 -0.5347 0.2656
vn -0.8096 0.5396 -0.2311
vn -0.5826 -0.7971 0.1588
vn -0.9257 0.1537 0.3456
vn -0.3241 0.0077 -0.9460
vn 0.9460 -0.0103 -0.3241
vn 0.3501 0.0580 0.9349
vn 0.9310 0.1776 -0.3189
vn -0.8454 -0.1227 -0.5199
vn 0.3298 -0.1152 0.9370
vn 0.5193 0.1306 -0.8445
vn 0.0570 0.9663 0.2512
vn 0.9821 0.0057 -0.1882
vn 0.0199 -0.9994 -0.0296
vn -0.8327 -0.5373 0.1340
vn 0.9518 0.0034 -0.3067
vn 0.4694 -0.8116 -0.3479
vn 0.1133 0.9001 -0.4207
vn 0.8320 -0.5545 0.0187
vn -0.9719 0.0000 0.2355
vn -0.5937 -0.6891 0.4155
vn -0.2510 -0.1659 0.9537
vn 0.4918 -0.3217 0.8091
vn -0.4881 -0.7026 0.5178
vn -0.1189 -0.9578 0.2618
vn 0.5294 -0.7223 0.4449
vn -0.1924 -0.8755 -0.4433
vn 0.7448 0.4212 0.5175
vn -0.3155 0.6346 0.7055
vn -0.9068 -0.3313 -0.2609
vn 0.8566 -0.4946 -0.1470
vn 0.3183 0.8477 0.4243
vn -0.7808 0.6193 -0.0827
vn -0.7218 -0.4107 -0.5571
vn -0.5564 0.7192 -0.4162
vn 0.2756 0.9461 -0.1703
vn 0.9863 0.1403 -0.0864
vn 0.4105 -0.5892 -0.6959
vn 0.6900 0.5280 -0.4950
vn -0.5157 0.0616 -0.8545
vn 0.3077 -0.1126 -0.9448
vn 0.5354 -0.5291 0.6584
vn 0.4164 -0.9031 0.1048
vn -0.2694 -0.3480 0.8980
vn -0.5481 -0.5355 0.6425
vn -0.1128 -0.9919 0.0578
vn 0.6506 -0.6409 -0.4075
vn 0.8637 0.0160 0.5037
vn -0.3383 0.5180 0.7856
vn -0.9702 0.0160 0.2420
vn -0.2719 -0.8252 -0.4951
vn 0.9475 -0.1431 -0.2859
vn 0.4391 0.7660 0.4695
vn -0.7202 0.5693 0.3965
vn -0.8432 -0.0805 -0.5316
vn 0.3998 -0.6011 -0.6920
vn 0.6306 0.5118 -0.5834
vn 0.3495 0.9367 -0.0206
vn -0.5038 0.8579 -0.1008
vn -0.6329 0.3100 -0.7094
vn 0.2540 0.2030 -0.9457
vn -0.4001 -0.8781 0.2623
vn -0.1185 -0.8671 -0.4839
vn -0.7882 -0.5446 0.2865
vn -0.9155 -0.3736 -0.1491
vn -0.3319 -0.6176 -0.7130
vn 0.5319 -0.7136 -0.4559
vn 0.1823 -0.6655 0.7238
vn -0.5787 0.0497 0.8140
vn -0.7225 0.6419 -0.2569
vn -0.0313 -0.0077 -0.9995
vn 0.6669 -0.5982 0.4443
vn -0.0196 -0.0840 0.9963
vn -0.5409 0.7415 0.3970
vn -0.1977 0.6673 -0.7181
vn 0.6469 -0.2881 -0.7060
vn 0.8750 0.1910 0.4449
vn 0.4300 0.4316 0.7930
vn 0.0605 0.9090 0.4124
vn 0.3251 0.9094 -0.2592
vn 0.8935 0.4205 -0.1577
g Tree_Cube.003_Wood
usemtl Wood
s off
f 1//1 4//1 3//1
f 4//2 7//2 3//2
f 7//3 6//3 5//3
f 5//4 2//4 1//4
f 7//5 1//5 3//5
f 2//6 12//6 9//6
f 12//7 15//7 16//7
f 8//6 10//6 11//6
f 6//6 11//6 12//6
f 4//6 9//6 10//6
f 14//8 16//8 15//8
f 9//9 14//9 10//9
f 9//10 16//10 13//10
f 10//11 15//11 11//11
f 18//12 19//12 17//12
f 20//13 28//13 25//13
f 23//14 22//14 21//14
f 22//15 17//15 21//15
f 19//5 21//5 17//5
f 20//8 22//8 24//8
f 28//16 29//16 25//16
f 20//17 26//17 19//17
f 24//18 27//18 28//18
f 19//19 27//19 23//19
f 30//20 32//20 31//20
f 26//21 29//21 30//21
f 27//22 32//22 28//22
f 27//23 30//23 31//23
f 34//24 35//24 33//24
f 36//25 44//25 41//25
f 40//26 37//26 39//26
f 38//27 33//27 37//27
f 35//5 37//5 33//5
f 36//8 38//8 40//8
f 41//28 48//28 45//28
f 36//29 42//29 35//29
f 40//30 43//30 44//30
f 35//31 43//31 39//31
f 46//32 48//32 47//32
f 41//33 46//33 42//33
f 44//34 47//34 48//34
f 42//35 47//35 43//35
f 1//36 2//36 4//36
f 4//37 8//37 7//37
f 7//38 8//38 6//38
f 5//39 6//39 2//39
f 7//5 5//5 1//5
f 2//6 6//6 12//6
f 12//40 11//40 15//40
f 8//6 4//6 10//6
f 6//6 8//6 11//6
f 4//6 2//6 9//6
f 14//8 13//8 16//8
f 9//41 13//41 14//41
f 9//42 12//42 16//42
f 10//43 14//43 15//43
f 18//12 20//12 19//12
f 20//44 24//44 28//44
f 23//45 24//45 22//45
f 22//15 18//15 17//15
f 19//46 23//46 21//46
f 20//8 18//8 22//8
f 28//16 32//16 29//16
f 20//47 25//47 26//47
f 24//48 23//48 27//48
f 19//49 26//49 27//49
f 30//20 29//20 32//20
f 26//21 25//21 29//21
f 27//22 31//22 32//22
f 27//23 26//23 30//23
f 34//24 36//24 35//24
f 36//50 40//50 44//50
f 40//26 38//26 37//26
f 38//27 34//27 33//27
f 35//5 39//5 37//5
f 36//8 34//8 38//8
f 41//28 44//28 48//28
f 36//51 41//51 42//51
f 40//52 39//52 43//52
f 35//53 42//53 43//53
f 46//32 45//32 48//32
f 41//33 45//33 46//33
f 44//34 43//34 47//34
f 42//35 46//35 47//35
g Tree_Cube.003_Foliage
usemtl Foliage
f 60//54 59//54 58//54
f 59//55 60//55 55//55
f 60//56 58//56 57//56
f 60//57 57//57 56//57
f 60//58 56//58 55//58
f 56//59 57//59 52//59
f 59//60 55//60 50//60
f 58//61 59//61 54//61
f 57//62 58//62 53//62
f 55//63 56//63 51//63
f 59//64 50//64 54//64
f 58//65 54//65 53//65
f 57//66 53//66 52//66
f 53//67 54//67 49//67
f 54//68 50//68 49//68
f 55//69 51//69 50//69
f 56//70 52//70 51//70
f 50//71 51//71 49//71
f 52//72 53//72 49//72
f 51//73 52//73 49//73
f 61//74 62//74 63//74
f 62//75 61//75 66//75
f 61//76 63//76 64//76
f 61//77 64//77 65//77
f 61//78 65//78 66//78
f 62//79 66//79 71//79
f 63//80 62//80 67//80
f 64//81 63//81 68//81
f 65//82 64//82 69//82
f 66//83 65//83 70//83
f 62//84 71//84 67//84
f 63//85 67//85 68//85
f 64//86 68//86 69//86
f 65//87 69//87 70//87
f 66//88 70//88 71//88
f 67//89 71//89 72//89
f 68//90 67//90 72//90
f 69//91 68//91 72//91
f 70//92 69//92 72//92
f 71//93 70//93 72//93
f 73//94 74//94 75//94
f 74//95 73//95 78//95
f 73//96 75//96 76//96
f 73//97 76//97 77//97
f 73//98 77//98 78//98
f 74//99 78//99 83//99
f 75//100 74//100 79//100
f 76//101 75//101 80//101
f 77//102 76//102 81//102
f 78//103 77//103 82//103
f 74//104 83//104 79//104
f 75//105 79//105 80//105
f 76//106 80//106 81//106
f 77//107 81//107 82//107
f 78//108 82//108 83//108
f 79//109 83//109 84//109
f 80//110 79//110 84//110
f 81//111 80//111 84//111
f 82//112 81//112 84//112
f 83//113 82//113 84//113
o Perch_Point_1_Cube.005
v -1.772916 6.657276 -0.172931
o Perch_Point_2_Cube.006
v 0.894811 3.574250 -2.273084
