# Blender v3.2.2 OBJ File: 'Bee.blend'
# www.blender.org
mtllib Bee.mtl
v -0.001592 -0.187096 -0.031381
v 0.106948 -0.104178 0.098080
v -0.043050 -0.104178 0.178094
v -0.135756 -0.104178 -0.031381
v 0.028444 0.033275 0.166093
v -0.110132 0.029987 0.098080
v 0.132571 0.029987 -0.031381
v -0.001592 0.112904 -0.031381
v 0.065489 0.071445 -0.031381
v -0.110132 0.029987 -0.031381
v 0.106948 -0.104178 -0.031381
vn 0.2110 -0.8939 0.3956
vn 0.6071 -0.7947 0.0000
vn -0.5121 -0.8285 0.2266
vn 0.9822 -0.1876 0.0000
vn 0.4642 -0.1655 0.8702
vn -0.8939 -0.2110 0.3956
vn 0.8542 0.2672 0.4460
vn -0.4264 0.2964 0.8546
vn 0.5084 0.8227 0.2544
vn -0.2142 0.8942 0.3931
vn -0.6071 0.7947 0.0000
vn -0.9822 0.1876 0.0000
usemtl Yellow
s off
f 1//1 2//1 3//1
f 2//2 1//2 11//2
f 1//3 3//3 4//3
f 2//4 11//4 7//4
f 3//5 2//5 5//5
f 4//6 3//6 6//6
f 2//7 7//7 5//7
f 3//8 5//8 6//8
f 5//9 9//9 8//9
f 6//10 5//10 8//10
f 8//11 10//11 6//11
f 10//12 4//12 6//12
f 5//9 7//9 9//9
v 0.319963 0.136827 -0.031381
v 0.319963 0.136827 -0.031381
v 0.319963 0.136827 -0.031381
v 0.319963 0.136827 -0.031381
v 0.091850 -0.040212 -0.106199
v 0.086087 -0.032526 -0.106199
v 0.091850 -0.040212 0.043437
v 0.086087 -0.032526 0.043437
vn 0.0000 0.0000 1.0000
vn 0.2007 0.1505 0.9680
vn -0.8001 -0.5999 0.0000
vn -0.5865 0.8100 0.0000
vn 0.2007 0.1505 -0.9680
vn 0.6131 -0.7900 -0.0000
usemtl Gray
s off
f 12//13 15//13 14//13
f 14//14 19//14 18//14
f 19//15 16//15 18//15
f 16//13 13//13 12//13
f 14//13 16//13 12//13
f 19//16 13//16 17//16
f 12//13 13//13 15//13
f 14//13 15//13 19//13
f 19//15 17//15 16//15
f 16//17 17//17 13//17
f 14//18 18//18 16//18
f 19//13 15//13 13//13
v -0.323267 0.136827 -0.031381
v -0.323267 0.136827 -0.031381
v -0.323267 0.136827 -0.031381
v -0.323267 0.136827 -0.031381
v -0.095154 -0.040212 0.043437
v -0.089391 -0.032526 0.043437
v -0.095154 -0.040212 -0.106199
v -0.089391 -0.032526 -0.106199
vn 0.0000 0.0000 1.0000
vn -0.2007 0.1505 -0.9680
vn 0.8001 -0.5999 -0.0000
vn 0.5865 0.8100 -0.0000
vn -0.2007 0.1505 0.9680
vn -0.6131 -0.7900 0.0000
usemtl Gray
s off
f 20//19 23//19 22//19
f 22//20 27//20 26//20
f 27//21 24//21 26//21
f 24//19 21//19 20//19
f 22//19 24//19 20//19
f 27//22 21//22 25//22
f 20//19 21//19 23//19
f 22//19 23//19 27//19
f 27//21 25//21 24//21
f 24//23 25//23 21//23
f 22//24 26//24 24//24
f 27//19 23//19 21//19
v -0.001592 -0.187096 -0.031381
v -0.135756 -0.104178 -0.031381
v -0.043050 -0.104178 -0.240855
v 0.106948 -0.104178 -0.160842
v -0.110132 0.029987 -0.160842
v 0.039865 0.029987 -0.240855
v 0.132571 0.029987 -0.031381
v -0.001592 0.112904 -0.031381
v 0.065489 0.071445 -0.031381
v -0.110132 0.029987 -0.031381
v 0.106948 -0.104178 -0.031381
vn -0.5121 -0.8285 -0.2266
vn 0.2110 -0.8939 -0.3956
vn -0.8939 -0.2110 -0.3956
vn 0.4519 -0.2793 -0.8472
vn -0.9822 0.1876 0.0000
vn -0.4519 0.2793 -0.8472
vn 0.8939 0.2110 -0.3956
vn -0.6071 0.7947 0.0000
vn -0.2110 0.8939 -0.3956
vn 0.5121 0.8285 -0.2266
vn 0.6071 -0.7947 0.0000
vn 0.9822 -0.1876 0.0000
usemtl Black
s off
f 28//25 29//25 30//25
f 28//26 30//26 31//26
f 30//27 29//27 32//27
f 31//28 30//28 33//28
f 29//29 37//29 32//29
f 30//30 32//30 33//30
f 31//31 33//31 34//31
f 32//32 37//32 35//32
f 33//33 32//33 35//33
f 33//34 36//34 34//34
f 38//35 28//35 31//35
f 34//36 38//36 31//36
f 33//34 35//34 36//34
v -0.031733 0.017038 0.111396
v -0.014018 0.030572 0.124267
v -0.038499 0.030572 0.132222
v -0.053630 0.030572 0.111396
v -0.038499 0.030572 0.090571
v -0.014018 0.030572 0.098526
v -0.024966 0.052469 0.132222
v -0.049448 0.052469 0.124267
v -0.049448 0.052469 0.098526
v -0.024966 0.052469 0.090571
v -0.009835 0.052469 0.111396
v -0.031733 0.066003 0.111396
vn 0.1876 -0.7947 0.5774
vn 0.6071 -0.7947 0.0000
vn -0.4911 -0.7947 0.3568
vn -0.4911 -0.7947 -0.3568
vn 0.1876 -0.7947 -0.5774
vn 0.9822 -0.1876 0.0000
vn 0.3035 -0.1876 0.9342
vn -0.7946 -0.1876 0.5774
vn -0.7946 -0.1876 -0.5774
vn 0.3035 -0.1876 -0.9342
vn 0.7946 0.1876 0.5774
vn -0.3035 0.1876 0.9342
vn -0.9822 0.1876 0.0000
vn -0.3035 0.1876 -0.9342
vn 0.7946 0.1876 -0.5774
vn 0.4911 0.7947 0.3568
vn -0.1876 0.7947 0.5774
vn -0.6071 0.7947 0.0000
vn -0.1876 0.7947 -0.5774
vn 0.4911 0.7947 -0.3568
usemtl Black
s off
f 39//37 40//37 41//37
f 40//38 39//38 44//38
f 39//39 41//39 42//39
f 39//40 42//40 43//40
f 39//41 43//41 44//41
f 40//42 44//42 49//42
f 41//43 40//43 45//43
f 42//44 41//44 46//44
f 43//45 42//45 47//45
f 44//46 43//46 48//46
f 40//47 49//47 45//47
f 41//48 45//48 46//48
f 42//49 46//49 47//49
f 43//50 47//50 48//50
f 44//51 48//51 49//51
f 45//52 49//52 50//52
f 46//53 45//53 50//53
f 47//54 46//54 50//54
f 48//55 47//55 50//55
f 49//56 48//56 50//56
v 0.042999 0.019018 0.108269
v 0.060714 0.032551 0.121140
v 0.036232 0.032551 0.129094
v 0.021102 0.032551 0.108269
v 0.036232 0.032551 0.087444
v 0.060714 0.032551 0.095398
v 0.049765 0.054449 0.129094
v 0.025284 0.054449 0.121140
v 0.025284 0.054449 0.095398
v 0.049765 0.054449 0.087444
v 0.064896 0.054449 0.108269
v 0.042999 0.067982 0.108269
vn 0.1876 -0.7947 0.5774
vn 0.6071 -0.7947 0.0000
vn -0.4911 -0.7947 0.3568
vn -0.4911 -0.7947 -0.3568
vn 0.1876 -0.7947 -0.5774
vn 0.9822 -0.1876 0.0000
vn 0.3035 -0.1876 0.9342
vn -0.7946 -0.1876 0.5774
vn -0.7946 -0.1876 -0.5774
vn 0.3035 -0.1876 -0.9342
vn 0.7946 0.1876 0.5774
vn -0.3035 0.1876 0.9342
vn -0.9822 0.1876 0.0000
vn -0.3035 0.1876 -0.9342
vn 0.7946 0.1876 -0.5774
vn 0.4911 0.7947 0.3568
vn -0.1876 0.7947 0.5774
vn -0.6071 0.7947 0.0000
vn -0.1876 0.7947 -0.5774
vn 0.4911 0.7947 -0.3568
usemtl Black
s off
f 51//57 52//57 53//57
f 52//58 51//58 56//58
f 51//59 53//59 54//59
f 51//60 54//60 55//60
f 51//61 55//61 56//61
f 52//62 56//62 61//62
f 53//63 52//63 57//63
f 54//64 53//64 58//64
f 55//65 54//65 59//65
f 56//66 55//66 60//66
f 52//67 61//67 57//67
f 53//68 57//68 58//68
f 54//69 58//69 59//69
f 55//70 59//70 60//70
f 56//71 60//71 61//71
f 57//72 61//72 62//72
f 58//73 57//73 62//73
f 59//74 58//74 62//74
f 60//75 59//75 62//75
f 61//76 60//76 62//76
